<svg xmlns="http://www.w3.org/2000/svg" viewBox="0 0 64 64" role="img" aria-label="Pelota dorada">
  <g fill="none" stroke-linecap="round" stroke-linejoin="round">
    <circle cx="32" cy="32" r="27" stroke="#f7d27a" stroke-width="2"/>
    <path d="M32 18 L43 26 L39 39 L25 39 L21 26 Z" stroke="#ffd978" stroke-width="1.65"/>
    <path d="M32 18 C30 12.5 27 8.5 22.5 5.4" stroke="#c9963e" stroke-width="1.45"/>
    <path d="M32 18 C34 12.5 37 8.5 41.5 5.4" stroke="#c9963e" stroke-width="1.45"/>
    <path d="M43 26 C48.7 24.2 53.5 21 57.8 16.7" stroke="#c9963e" stroke-width="1.45"/>
    <path d="M21 26 C15.3 24.2 10.5 21 6.2 16.7" stroke="#c9963e" stroke-width="1.45"/>
    <path d="M39 39 C43.6 44.2 46.4 50.5 47.3 58.1" stroke="#c9963e" stroke-width="1.45"/>
    <path d="M25 39 C20.4 44.2 17.6 50.5 16.7 58.1" stroke="#c9963e" stroke-width="1.45"/>
    <path d="M7.8 38.2 C13 42.4 18.6 42.8 25 39" stroke="#c9963e" stroke-width="1.45"/>
    <path d="M56.2 38.2 C51 42.4 45.4 42.8 39 39" stroke="#c9963e" stroke-width="1.45"/>
  </g>
</svg>
